<?xml version="1.0" standalone="no"?>
<!DOCTYPE svg PUBLIC "-//W3C//DTD SVG 20010904//EN"
 "http://www.w3.org/TR/2001/REC-SVG-20010904/DTD/svg10.dtd">
<svg version="1.0" xmlns="http://www.w3.org/2000/svg"
 width="1024.000000pt" height="1024.000000pt" viewBox="0 100 1024 824"
 preserveAspectRatio="xMidYMid meet">

<g transform="translate(0.000000,1024.000000) scale(0.100000,-0.100000)"
fill="#000000" stroke="none">
<path d="M5515 6663 c-613 -48 -811 -99 -1220 -312 -189 -99 -404 -224 -610
-356 l-160 -103 -260 -21 c-510 -43 -717 -81 -960 -178 -169 -67 -294 -145
-446 -279 -97 -86 -104 -100 -74 -171 20 -47 19 -53 -8 -53 -33 0 -117 -29
-149 -52 -16 -11 -33 -36 -40 -60 l-12 -41 43 -38 c55 -46 160 -109 184 -109
13 0 30 26 62 94 92 200 218 350 385 462 111 74 195 113 336 160 101 33 350
87 454 99 52 6 50 4 -45 -28 -198 -69 -390 -166 -535 -273 -120 -87 -239 -213
-202 -214 4 0 59 -5 122 -10 63 -5 358 -10 655 -10 623 0 574 -7 780 106 283
154 504 250 725 317 284 86 491 109 1270 142 201 9 379 18 397 21 44 7 85 44
121 108 57 101 230 351 295 427 213 249 410 229 1137 -114 109 -51 226 -118
475 -272 61 -38 162 -92 225 -122 218 -102 205 -91 208 -158 3 -58 -23 -167
-54 -227 l-14 -27 -42 45 c-76 82 -143 102 -225 64 -60 -27 -106 -66 -160
-134 l-46 -59 -94 5 c-51 3 -96 8 -99 11 -8 7 107 235 153 304 27 41 33 57 24
66 -25 25 -73 18 -946 -144 -297 -55 -648 -120 -779 -145 -131 -24 -250 -44
-263 -44 -36 0 -39 -25 -10 -114 14 -45 33 -108 41 -141 20 -82 60 -363 50
-353 -2 2 -17 56 -33 119 -122 481 -416 709 -728 563 -93 -44 -206 -165 -270
-290 -83 -164 -147 -394 -179 -644 -4 -30 -13 -67 -20 -82 -18 -34 -179 -250
-230 -307 -63 -69 -74 -48 -19 34 60 89 75 124 75 178 0 74 -134 446 -172 480
-12 10 -36 17 -62 17 -49 0 -428 -39 -816 -83 -317 -37 -281 -41 -381 45 l-57
48 -378 4 c-353 4 -789 18 -964 31 l-75 6 -28 -45 c-46 -73 -44 -73 -154 -31
-54 21 -129 53 -167 72 -38 18 -71 31 -74 28 -3 -3 11 -122 32 -264 l37 -260
-46 -104 c-25 -58 -45 -118 -45 -133 0 -40 41 -123 76 -155 28 -26 35 -27 188
-34 l159 -6 55 -49 c113 -101 208 -133 438 -150 182 -13 301 -13 366 1 70 15
163 59 213 102 l41 35 871 -6 c480 -3 876 -8 880 -11 5 -3 30 -33 56 -66 53
-69 122 -125 191 -156 62 -27 196 -39 451 -42 185 -1 205 0 264 21 149 54 274
172 360 340 12 23 32 47 44 51 38 14 1586 217 1592 209 1 -2 14 -29 30 -62 37
-73 94 -138 141 -161 27 -13 84 -19 247 -27 264 -12 361 -8 421 21 115 56 194
207 241 456 11 61 32 123 66 195 l49 105 11 195 c23 395 -15 685 -105 803 -44
57 -105 102 -176 128 -33 12 -60 25 -60 28 0 3 15 29 33 56 29 45 37 50 87 60
87 18 125 33 152 63 23 24 138 194 138 204 0 1 -232 4 -515 4 l-515 2 -192 95
c-402 199 -661 265 -1163 297 -142 9 -968 12 -1070 3z m885 -221 c33 -5 45
-12 45 -24 0 -22 -324 -505 -345 -514 -40 -18 -2281 -14 -2280 5 1 10 337 214
525 319 329 184 406 213 605 223 177 9 1387 2 1450 -9z m2066 -419 c-30 -48
-61 -92 -69 -97 -11 -7 -31 4 -78 46 -35 30 -88 73 -117 96 l-54 42 186 0 186
0 -54 -87z m33 -840 c53 -44 105 -152 131 -268 30 -131 38 -380 16 -505 -19
-106 -68 -220 -112 -260 l-28 -25 15 25 c59 95 90 249 90 445 0 249 -44 426
-127 513 -40 41 -46 44 -80 39 -50 -8 -93 -52 -138 -139 l-36 -70 0 38 c0 26
14 64 41 114 49 91 73 118 113 128 45 12 70 4 115 -35z m-2774 -57 c168 -78
279 -390 262 -736 -7 -140 -33 -247 -89 -360 -93 -189 -261 -291 -392 -236
-54 22 -49 31 15 28 49 -3 70 1 114 23 116 56 218 217 257 402 26 126 21 346
-11 463 -27 98 -82 208 -129 257 -134 138 -323 76 -428 -142 -40 -82 -44 -72
-9 21 90 239 256 352 410 280z m2009 -260 c84 -17 116 -30 116 -50 0 -26 -216
-104 -511 -185 -425 -117 -950 -246 -972 -238 -14 4 72 73 181 144 158 104
384 195 677 274 268 71 367 82 509 55z m-6049 -219 c33 -19 43 -33 66 -92 15
-39 40 -115 55 -169 l28 -99 -74 -69 c-81 -75 -135 -108 -175 -108 -49 0 -26
55 70 165 l64 73 -45 157 c-24 87 -44 160 -44 161 0 8 17 2 55 -19z m2313
-331 c92 -45 220 -107 286 -136 187 -85 176 -102 -84 -126 -213 -19 -344 -15
-441 15 -63 20 -250 128 -257 149 -1 5 21 25 50 43 76 47 251 139 266 139 7 0
88 -38 180 -84z m-1663 -226 c61 -6 326 -13 590 -16 454 -6 482 -7 521 -26 23
-11 54 -30 68 -42 l27 -21 -328 7 c-568 12 -998 35 -1175 62 -18 3 -51 8 -73
11 l-40 7 25 20 c23 19 33 20 150 14 69 -4 175 -11 235 -16z"/>
<path d="M6888 6341 c-80 -26 -127 -64 -198 -159 -95 -127 -243 -352 -236
-359 8 -9 919 26 1006 38 41 6 100 21 132 34 73 30 188 110 188 132 0 21 -246
147 -422 217 -215 85 -394 122 -470 97z"/>
<path d="M4855 5335 c-293 -52 -817 -161 -1086 -226 -47 -12 -110 -33 -140
-48 -71 -35 -71 -54 1 -98 71 -43 139 -63 214 -63 111 0 951 122 993 144 16 8
44 32 64 53 62 65 190 235 186 247 -6 19 -86 16 -232 -9z"/>
</g>
</svg>
